<svg width="49" height="49" viewBox="0 0 49 49" fill="none" xmlns="http://www.w3.org/2000/svg">
<path d="M24.4996 9.7998C30.5389 9.7998 33.964 13.6561 34.4613 18.3111H34.6132C38.4989 18.3111 41.6496 21.3418 41.6496 25.0805C41.6496 28.8192 38.4989 31.8498 34.6132 31.8498L32.8909 31.8474L32.859 31.9307L29.2257 38.5555C29.0796 38.8246 28.8381 39.0292 28.5487 39.1291C28.2593 39.229 27.9429 39.2169 27.662 39.0952C27.381 38.9735 27.1559 38.751 27.0308 38.4715C26.9058 38.192 26.8899 37.8758 26.9864 37.5853L27.0746 37.3819L30.1101 31.8498H25.5703L25.536 31.9331L21.9026 38.5579C21.7566 38.827 21.5151 39.0317 21.2256 39.1316C20.9362 39.2315 20.6199 39.2194 20.3389 39.0976C20.058 38.9759 19.8328 38.7534 19.7078 38.4739C19.5827 38.1945 19.5669 37.8783 19.6633 37.5877L19.7515 37.3844L22.7871 31.8498H18.208L14.5526 38.5555C14.4152 38.8067 14.1942 39.0018 13.9279 39.107C13.6616 39.2122 13.3668 39.2207 13.0949 39.1312L12.8915 39.043C12.6399 38.906 12.4442 38.6851 12.3386 38.4188C12.2329 38.1524 12.224 37.8575 12.3133 37.5853L12.4015 37.3819L15.4175 31.8498H14.386C10.5003 31.8498 7.34961 28.8192 7.34961 25.0805C7.34961 21.479 10.27 18.5365 13.9573 18.3234L14.5379 18.3111C15.0402 13.6243 18.4604 9.7998 24.4996 9.7998ZM24.4996 12.2498C20.4571 12.2498 16.9365 15.3613 16.9365 19.6611C16.9365 20.3422 16.3142 20.8763 15.6012 20.8763H14.2537C11.7939 20.8763 9.79961 22.7848 9.79961 25.1393C9.79961 27.4888 11.7939 29.3998 14.2537 29.3998H34.7455C37.2053 29.3998 39.1996 27.4913 39.1996 25.1368C39.1996 22.7848 37.2053 20.8763 34.7455 20.8763H33.398C32.6875 20.8763 32.0628 20.3422 32.0628 19.6611C32.0628 15.3074 28.5421 12.2498 24.4996 12.2498Z" fill="#CE00FF"/>
</svg>
