<svg width="1081" height="1146" viewBox="0 0 1081 1146" fill="none" xmlns="http://www.w3.org/2000/svg">
<path d="M117.477 329.79L120.457 321.796C123.263 314.266 121.363 305.79 115.611 300.178L111.886 296.544C106.454 291.245 105.978 282.671 110.79 276.804V276.804C114.783 271.934 115.21 265.055 111.851 259.729L102.284 244.563L82.0275 216.772L71.3879 204.662C63.3558 195.52 57.0599 184.988 52.8096 173.585L51.6422 170.453L43.5451 148.729C39.0246 136.601 39.8123 123.131 45.7155 111.613V111.613C49.5911 104.051 55.4818 97.7073 62.7368 93.2836L74.7232 85.9749C79.5831 83.0115 84.6972 80.4869 90.0051 78.4308L107.644 71.5981C119.164 67.1355 131.411 64.8463 143.765 64.8463H178.248H252.014C260.2 64.8463 268.355 65.8515 276.296 67.8393L360.56 88.932L484.633 129.693L646.688 201.95L732.78 239.005L844.193 292.735L955.605 340.906L1044.23 389.078L1056.89 398.341M152.927 411.311V400.33C152.927 392.88 151.697 385.48 149.288 378.429L147.269 372.519C145.987 368.767 144.042 365.274 141.528 362.207V362.207C134.422 353.541 132.17 341.874 135.541 331.186L136.052 329.565C137.167 326.03 137.734 322.345 137.734 318.639V299.065C137.734 291.167 136.798 283.297 134.947 275.619L134.863 275.272C131.744 262.34 126.076 250.161 118.192 239.447L94.6881 207.508L66.8349 170.453L51.6422 146.367L27.5011 116.927C18.3814 105.806 11.7681 92.8479 8.11219 78.9378L2.30762 56.8523C1.43948 53.5492 1 50.1481 1 46.7328V46.3227C1 34.5981 6.28159 23.4973 15.379 16.1011V16.1011C20.8811 11.6279 27.5001 8.74156 34.522 7.75349L89.6239 0H168.948C175.134 0 181.308 0.574076 187.388 1.71485L266.246 16.51C273.394 17.851 280.374 19.9677 287.063 22.8226L448.769 91.843C455.775 94.8332 462.416 98.6142 468.563 103.112L497.294 124.134L569.809 180.617C573.79 183.718 577.53 187.116 580.999 190.781L621.367 233.447L646.089 263.972C656.456 276.773 663.501 291.937 666.596 308.116L679.606 376.108M679.606 376.108L686.107 385.147C698.343 402.158 704.927 422.584 704.927 443.54V495.181C704.927 507.106 702.794 518.934 698.629 530.107L693.993 542.547C691.164 550.136 687.424 557.353 682.854 564.04L613.771 665.138L594.669 691.538C592.217 694.926 589.419 698.05 586.32 700.857V700.857C560.216 724.506 519.469 720.765 498.107 692.76L477.037 665.138M679.606 376.108L712.523 394.636V394.636C720.85 400.729 730.475 404.811 740.644 406.561L768.229 411.311L813.807 418.722L884.706 433.544V433.544C898.053 434.764 910.979 438.855 922.598 445.535L940.413 455.777L988.523 478.01L1013.84 490.979L1033.98 499.819C1037.19 501.228 1040.91 500.821 1043.74 498.751V498.751C1049.71 494.38 1048.89 485.226 1042.24 481.98L1026.5 474.304L991.055 455.777L971.323 444.948C964.247 441.065 956.727 438.053 948.926 435.977L919.72 428.206C909.939 425.604 899.819 424.501 889.707 424.937L876.304 425.513C866.762 425.924 857.328 427.7 848.29 430.786L831.897 436.383C826.599 438.193 821.158 439.554 815.632 440.452L787.115 445.089C781.296 446.035 775.388 446.315 769.505 445.924V445.924C757.023 445.094 744.927 441.259 734.246 434.747L730.069 432.199C723.459 428.169 716.394 424.94 709.021 422.58L689.66 416.382C682.976 414.242 676.084 412.812 669.101 412.115L629.769 408.191C625.946 407.809 622.328 406.278 619.391 403.799L613.568 398.883C604.146 390.928 589.677 396.993 588.744 409.289L588.679 410.144C588.528 412.125 588.881 414.111 589.705 415.919V415.919C590.542 417.756 591.838 419.348 593.468 420.541L613.771 435.396V435.396C628.546 446.207 646.206 452.902 664.446 454.472L668.702 454.838C675.949 455.462 683.107 456.875 690.048 459.051L735.894 473.428C745.578 476.465 755.677 478.01 765.826 478.01V478.01C775.806 478.01 785.74 476.516 795.278 473.577L814.612 467.62C824.15 464.682 834.075 463.188 844.055 463.188H889.771H950.541H977.442C984.803 463.188 992.137 462.306 999.289 460.562L1021.52 455.141C1024.77 454.347 1028.18 454.538 1031.33 455.688V455.688C1043.1 459.994 1046.25 475.164 1037.17 483.801L1033.65 487.143C1032.27 488.458 1030.71 489.568 1029.01 490.438L1006.25 502.095L984.44 516.824C977.067 521.805 969.061 525.779 960.636 528.641L909.382 546.053C904.754 547.625 900.018 548.856 895.21 549.735L851.789 557.678L810.291 567.799C802.535 569.691 794.58 570.647 786.596 570.647H758.169C746.525 570.647 735.1 567.489 725.11 561.508V561.508C716.825 556.548 707.53 553.516 697.914 552.636L684.644 551.423C676.254 550.655 667.802 550.951 659.486 552.303L649.22 553.972L616.303 555.825H601.103C589.383 555.825 577.753 553.765 566.746 549.738L563.128 548.414L559.091 547.232C554.781 545.971 550.468 549.203 550.468 553.693V553.693C550.468 556.151 551.807 558.413 553.961 559.595L570.684 568.772C577.32 572.414 584.872 574.043 592.419 573.462L610.06 572.103C622.547 571.141 635.103 572.573 647.054 576.32L649.803 577.182C659.486 580.219 669.576 581.764 679.725 581.764H712.523L803.679 585.469L844.508 592.259C854.371 593.899 863.931 597.009 872.871 601.484L899.988 615.06C904.984 617.561 909.762 620.477 914.271 623.777L916.235 625.213C920.526 628.353 924.492 631.915 928.074 635.846V635.846C937.804 646.526 950.257 654.357 964.098 658.5L998.651 668.843L1022.58 673.012C1037.85 675.672 1051.83 663.92 1051.83 648.421V648.421C1051.83 637.439 1044.65 627.747 1034.14 624.544L998.457 613.664C993.535 612.164 988.473 611.172 983.349 610.703L930.284 605.849H851.789L770.761 615.113L712.523 624.377L695.212 626.488C677.211 628.683 659.122 623.17 645.405 611.309L643.114 609.328C640.444 607.019 638.083 604.374 636.091 601.459V601.459C628.462 590.294 615.604 583.616 602.082 583.616V583.616C599.772 583.616 597.433 583.423 595.156 583.039L573.768 579.427C568.393 578.52 562.913 578.424 557.511 579.142L542.306 581.165C539.401 581.552 536.725 582.952 534.751 585.119V585.119C530.666 589.601 530.409 596.376 534.142 601.156L536.611 604.317C537.406 605.336 538.313 606.261 539.316 607.076L560.596 624.377L577.426 636.691C586.4 643.258 596.407 648.281 607.034 651.555L620.559 655.722C632.8 659.494 645.652 660.878 658.415 659.801L682.541 657.764C697.05 656.539 711.553 660.184 723.759 668.122V668.122C726.393 669.836 728.901 671.737 731.262 673.81L733.026 675.359C746.129 686.864 762.063 694.667 779.186 697.964L793.109 700.645C798.455 701.674 803.888 702.193 809.332 702.193V702.193C815.672 702.193 821.993 701.49 828.178 700.097L884.706 687.371L930.284 681.812L964.909 675.851C970.513 674.886 976.189 674.401 981.876 674.401H1006.25L1036.56 673.169C1045.59 672.802 1053.29 666.484 1055.41 657.692V657.692C1057.73 648.086 1052.77 638.211 1043.68 634.332L1029.04 628.082L995.314 617.693C985.776 614.755 975.852 613.26 965.872 613.26H917.624L836.596 618.819L780.89 624.377H749.717C739.119 624.377 729.204 619.143 723.224 610.393V610.393C721.169 607.386 718.618 604.751 715.679 602.6L701.397 592.15C697.007 588.938 692.339 586.122 687.449 583.737L670.87 575.65C666.646 573.589 661.938 572.726 657.259 573.154V573.154C649.031 573.907 640.943 570.659 635.522 564.425L628.812 556.71C627.227 554.888 625.501 553.194 623.648 551.645L594.099 526.935C592.031 525.206 589.729 523.779 587.261 522.695L582.1 520.429C572.558 516.24 567.334 505.867 569.648 495.706L569.898 494.608C570.443 492.218 571.507 489.977 573.016 488.045V488.045C577.644 482.119 585.664 480.021 592.601 482.921L596.974 484.75C598.042 485.197 599.074 485.723 600.062 486.326L602.991 488.112C610.088 492.439 618.06 495.133 626.327 495.997L639.075 497.329C645.575 498.009 651.544 501.224 655.688 506.278V506.278C656.439 507.194 657.255 508.055 658.13 508.855L658.267 508.98C663.808 514.048 671.186 516.622 678.677 516.1L720.119 513.212H770.761L818.55 516.391C823.82 516.741 829.055 517.509 834.203 518.686L866.982 526.181L892.309 531.476C899.039 532.883 905.897 533.592 912.772 533.592H945.477H998.651V533.592C1012.74 535.138 1015.77 554.284 1002.86 560.114L930.284 592.88L808.743 648.463L763.165 672.549L606.174 744.806L542.872 770.744L474.505 798.536L406.516 817.793C399.532 819.771 392.354 820.983 385.108 821.407L342.304 823.912C335.929 824.285 329.531 823.893 323.249 822.744L317.758 821.74C307.643 819.889 298.187 815.426 290.33 808.792V808.792C277.06 797.588 269.404 781.105 269.404 763.738V757.775V739.293C269.404 733.104 268.762 726.931 267.488 720.873V720.873C265.404 710.962 261.653 701.476 256.395 692.819L254.211 689.223M679.606 376.108L650.006 371.777C644.431 370.961 638.79 370.698 633.164 370.992L609.657 372.221C607.391 372.339 605.142 371.756 603.219 370.55L584.586 358.864C580.584 356.353 582.362 350.17 587.087 350.17V350.17C587.977 350.17 588.849 350.422 589.601 350.898L640.326 382.952C642.874 384.562 645.275 386.396 647.499 388.43L653.406 393.833C660.407 400.235 669.813 403.335 679.248 402.349V402.349C681.171 402.148 683.072 401.779 684.931 401.247L720.524 391.056C733.621 387.306 747.345 386.272 760.856 388.017L763.661 388.379C776.707 390.063 789.292 394.305 800.696 400.861L818.872 411.311L889.771 453.924L950.541 485.421L997.061 508.629C1003.17 511.676 1008.95 515.341 1014.31 519.566L1035.2 536.029C1037.83 538.095 1040.08 540.588 1041.88 543.402L1053.86 562.187C1055.56 564.861 1054.9 568.399 1052.34 570.272V570.272C1050.48 571.634 1048 571.811 1045.96 570.728L1021.44 557.678L1004.21 549.798C988.934 542.812 975.664 532.091 965.625 518.624L960.214 511.366C953.825 502.795 945.85 495.53 936.723 489.964V489.964C925.823 483.318 913.546 479.258 900.833 478.095L798.615 468.746H795.284C779.226 468.746 763.457 473.022 749.598 481.134L746.569 482.907C729.524 492.885 709.424 496.303 690.038 492.52V492.52C684.784 491.495 679.644 489.953 674.694 487.915L650.237 477.849C644.605 475.531 638.441 474.822 632.431 475.799V475.799C623.733 477.213 614.83 475.08 607.718 469.876L598.329 463.006C596.824 461.904 595.569 460.497 594.646 458.876L588.65 448.347C586.302 444.224 589.28 439.102 594.025 439.102V439.102C595.338 439.102 596.617 439.52 597.677 440.295L609.091 448.647C615.493 453.331 622.928 456.407 630.768 457.615L652.213 460.918C661.979 462.423 671.916 462.46 681.694 461.029L713.062 456.439C723.893 454.854 734.845 458.409 742.68 466.053V466.053C744.515 467.843 746.54 469.427 748.719 470.776L753.865 473.962C769.797 483.826 788.406 488.487 807.107 487.297L836.596 485.421H894.835M477.037 665.138V655.874M477.037 665.138V665.138C486.845 663.941 496.759 666.268 505.012 671.702L542.872 696.634L618.288 748.472C623.704 752.195 629.473 755.374 635.513 757.965L747.949 806.192C764.536 813.307 778.888 824.778 789.483 839.389L826.104 889.888C834.683 901.717 845.75 911.523 858.526 918.615L894.308 938.477C906.346 945.159 919.634 949.284 933.34 950.592L1021.27 958.983C1026.27 959.461 1031.28 958.085 1035.34 955.115V955.115C1046.95 946.616 1046.44 929.111 1034.35 921.304L982.525 887.846C976.441 883.918 971.08 878.969 966.678 873.218L961.584 866.561C946.341 846.645 924.171 833.183 899.468 828.845L684.67 791.125L647.524 786.183C635.317 784.559 623.652 780.126 613.447 773.233L606.84 768.771C599.765 763.992 594.049 757.462 590.249 749.816V749.816C587.389 744.061 583.433 738.919 578.604 734.678L573.257 729.984L546.704 709.412C535.826 700.984 526.804 690.402 520.203 678.328L515.018 668.843L514.724 668.198C511.732 661.63 520.366 656.025 525.147 661.432V661.432L533.197 673.213C539.6 682.583 547.551 690.795 556.71 697.496L593.915 724.719C598.702 728.222 603.792 731.292 609.123 733.893L616.692 737.585C626.451 742.345 635.093 749.114 642.054 757.447V757.447C653.25 770.854 668.67 780.059 685.783 783.553L768.229 800.388L884.706 817.063L927.553 822.515C937.753 823.813 947.692 826.677 957.02 831.005L1046.76 872.646L1073.79 886.338C1077.4 888.167 1079.68 891.872 1079.68 895.921V895.921C1079.68 903.932 1071.23 909.125 1064.08 905.505L1048.99 897.863C1047.51 897.111 1046.12 896.187 1044.85 895.11L953.073 817.063L941.493 808.589C929.122 799.538 914.836 793.451 899.738 790.8L859.385 783.714L780.162 778.883C772.235 778.4 764.394 776.974 756.805 774.636L689.111 753.78C677.8 750.295 667.197 744.83 657.796 737.639L621.986 710.246C618.202 707.351 614.216 704.73 610.058 702.404L538.54 662.387C533.052 659.316 528.293 655.096 524.589 650.014L512.099 632.878C510.769 631.054 510.5 628.664 511.391 626.59L519.672 607.311C521.771 602.424 529.127 604.784 527.991 609.98V609.98C527.788 610.907 527.891 611.874 528.285 612.737L550.468 661.432V661.432C560.034 677.764 576.72 688.648 595.522 690.821L613.771 692.929L615.289 693.225C638.812 697.815 659.905 710.701 674.726 729.536L695.082 755.406C698.264 759.45 701.754 763.242 705.519 766.749L727.716 787.419L766.458 815.767C771.007 819.095 775.266 822.802 779.19 826.848L817.703 866.556C825.185 874.271 833.863 880.729 843.401 885.682L897.256 913.647C904.06 917.18 911.233 919.917 918.664 921.8C959.928 932.254 1027.4 949.11 1036.63 950.461C1042.27 951.285 1048.68 951.002 1054.14 950.375C1059.85 949.72 1065.47 953.265 1066.65 958.889V958.889C1068.08 965.683 1062.43 971.88 1055.54 971.092L996.053 964.291C991.058 963.72 986.169 962.446 981.531 960.507L975.252 957.881C960.674 951.786 947.748 942.323 937.533 930.268L883.986 867.074C877.747 859.711 872.606 851.483 868.725 842.647L866.136 836.753C856.858 815.632 840.562 798.368 820.011 787.888L782.549 768.783C773.063 763.946 762.866 760.654 752.343 759.033L729.93 755.581C723.406 754.576 716.997 752.927 710.797 750.659L662.676 733.054C657.093 731.011 651.338 729.471 645.481 728.45L601.11 720.72L490.607 698.356C485.028 697.227 479.829 694.695 475.5 690.999V690.999C469.926 686.241 462.946 683.442 455.63 683.03L446.081 682.493C438.41 682.061 431.314 678.287 426.668 672.168L423.571 668.089C422.117 666.174 421.33 663.836 421.33 661.432V661.432M477.037 665.138L537.807 729.984L555.532 750.364L567.641 766.818C571.377 771.895 575.584 776.606 580.206 780.891L611.239 809.652L720.119 909.701L753.048 936.472C761.426 943.283 770.851 948.692 780.958 952.49L818.393 966.555C844.523 976.374 873.568 974.823 898.505 962.279L899.899 961.578M152.927 348.317V335.78C152.927 331.906 151.584 328.153 149.128 325.158V325.158C146.672 322.163 145.33 318.409 145.33 314.536V311.692C145.33 310.173 145.47 308.658 145.748 307.166L152.293 272.051C152.714 269.788 152.927 267.49 152.927 265.188V249.78C152.927 243.308 156.968 237.526 163.045 235.303V235.303C166.33 234.101 169.108 231.818 170.924 228.829L172.969 225.463C176.368 219.866 181.71 215.716 187.975 213.806L203.705 209.011C206.981 208.012 210.147 206.677 213.15 205.029V205.029C229.103 196.275 239.018 179.523 239.018 161.326V155.631V124.134V86.2958C239.018 80.6524 238.541 75.0191 237.59 69.4563L228.89 18.5275M223.826 24.0858L228.89 81.521V140.337C228.89 150.364 226.307 160.221 221.389 168.96L220.77 170.06C214.559 181.097 204.719 189.644 192.921 194.248L184.209 197.647C177.114 200.416 171.306 205.728 167.916 212.548V212.548C164.772 218.874 163.912 226.093 165.481 232.98L167.219 240.61C167.809 243.201 169.06 245.596 170.85 247.56V247.56C175.277 252.419 176.132 259.551 172.979 265.317L168.811 272.942C168.357 273.772 168.119 274.703 168.119 275.649V275.649C168.119 279.498 171.889 282.217 175.542 281.002L195.972 274.207L233.954 255.68L257.651 247.01C262.076 245.391 266.75 244.563 271.461 244.563H277.815C282.221 244.563 286.513 243.161 290.069 240.559V240.559C291.479 239.527 292.753 238.321 293.861 236.97L297.614 232.394C308.75 218.813 324.748 210.114 342.201 208.15L347.899 207.508H363.405C371.428 207.508 379.242 204.954 385.717 200.217V200.217C393.919 194.216 399.357 185.164 400.804 175.104L402.471 163.516C403.225 158.278 403.342 152.969 402.82 147.704L390.945 27.7913M183.312 268.649V264.876C183.312 259.031 185.83 253.469 190.222 249.612V249.612C193.929 246.358 198.692 244.563 203.625 244.563H211.472C216.294 244.563 221.079 245.411 225.607 247.068L237.778 251.52C251.754 256.633 266.985 257.215 281.31 253.184V253.184C288.52 251.155 295.362 247.996 301.581 243.824L317.602 233.079C320.865 230.89 324.634 229.574 328.55 229.256L339.333 228.379C342.924 228.087 345.911 225.499 346.711 221.986V221.986C347.434 218.814 349.953 216.362 353.143 215.725L375.752 211.214L384.223 209.836C393.495 208.329 401.985 203.729 408.311 196.785V196.785C411.893 192.854 414.689 188.272 416.546 183.289L421.33 170.453L423.605 162.131C427.117 149.281 428.027 135.859 426.28 122.653L413.734 27.7913M112.413 377.961V377.961C115.692 387.558 122.127 395.76 130.668 401.229L132.889 402.65C136.109 404.712 139.546 406.415 143.137 407.729L168.119 416.869L197.587 432.27C201.569 434.351 205.39 436.729 209.016 439.382L213.989 443.021C223.743 450.158 231.395 459.789 236.142 470.904V470.904C239.711 479.26 241.55 488.252 241.55 497.339V500.126C241.55 512.327 244.857 524.3 251.119 534.772L252.925 537.793C257.101 544.778 262.843 550.698 269.697 555.087V555.087C276.175 559.234 283.484 561.909 291.108 562.923L307.385 565.089L333.45 567.473C343.033 568.349 352.691 567.838 362.128 565.955L403.605 557.678L456.78 539.15L510.126 525.098C516.746 523.355 523.17 520.936 529.296 517.879L575.789 494.684L689.734 435.396L755.569 400.194L861.917 329.79L930.284 292.735L1001.18 250.121L1051.83 222.33M1051.83 222.33L1062.96 213.558C1076.14 203.169 1081.76 185.855 1077.2 169.702V169.702C1072.58 153.373 1058.48 141.505 1041.6 139.74L1034.1 138.956L839.128 118.576M1051.83 222.33L980.927 163.042L907.495 101.901L889.535 82.7858C882.974 75.803 875.443 69.7994 867.174 64.9591L822.513 38.8158C818.689 36.5777 816.339 32.4796 816.339 28.0492V28.0492C816.339 20.8725 822.38 15.1756 829.544 15.595L861.265 17.4518C872.989 18.138 883.905 23.6511 891.415 32.6795L915.092 61.1408L963.202 124.134L1015.19 181.192C1017.66 183.902 1020.48 186.272 1023.57 188.24V188.24C1048.8 204.297 1049.21 240.992 1024.34 257.607L1018.91 261.238L955.605 294.587L954.14 295.155C927.676 305.407 898.102 303.93 872.79 291.094L656.817 181.57L497.294 101.901L467.163 82.7944C461.94 79.4823 456.421 76.6619 450.677 74.3693L375.752 44.466L352.889 37.4955C347.891 35.9719 342.733 35.0371 337.519 34.7101L275.973 30.8501C265.984 30.2235 257.885 38.832 259.119 48.7647V48.7647C259.223 49.6031 259.393 50.4319 259.629 51.2433L277 111.165L287.128 153.778L304.853 203.803L314.982 239.005M550.468 294.587L560.097 306.564C570.399 319.38 577.383 334.538 580.429 350.696L585.917 379.814V379.814C587.509 394.958 596.209 408.442 609.35 416.134L616.621 420.39C623.111 424.189 630.215 426.825 637.613 428.178L643.118 429.185C658.759 432.046 673.449 438.735 685.876 448.655L694.798 455.777L705.866 465.899C718.531 477.483 733.964 485.612 750.681 489.504L780.89 496.537L829 502.095H858.905C864.281 502.095 869.648 502.529 874.954 503.392L912.56 509.506L1039.17 520.623L1040.09 520.578C1054.46 519.877 1062.91 536.476 1053.9 547.688V547.688C1052.53 549.391 1050.84 550.808 1048.92 551.859L960.67 600.291L912.56 628.082L740.376 718.867L616.303 778.155L560.596 800.388L482.101 830.032L458.448 837.604C447.294 841.175 435.6 842.758 423.898 842.282L396.009 841.149L352.963 843.002L329.976 841.708C323.404 841.338 316.943 839.851 310.87 837.312V837.312C305.207 834.944 299.955 831.692 295.312 827.677L274.468 809.652L269.291 805.443C257.925 796.203 250.236 783.205 247.61 768.794V768.794C246.948 765.161 246.615 761.475 246.615 757.782V724.426L241.55 670.696V656.731C241.55 653.699 241.211 650.676 240.537 647.72L237.249 633.284C236.764 631.154 235.39 629.334 233.476 628.283V628.283C229.617 626.165 228.341 621.233 230.689 617.51L238.302 605.441C240.424 602.077 241.55 598.18 241.55 594.202V565.026C241.55 554.027 239.736 543.103 236.18 532.694L230.923 517.31C229.573 513.359 228.73 509.252 228.414 505.089L228.183 502.054C227.047 487.083 218.325 473.735 205.07 466.682V466.682C200.724 464.369 196.02 462.805 191.154 462.055L150.395 455.777L137.443 452.331C131.701 450.803 126.864 456.801 129.574 462.088V462.088C129.947 462.815 130.446 463.47 131.049 464.021L144.947 476.733C155.218 486.127 163.414 497.561 169.012 510.304L178.071 530.926C181.55 538.846 186.042 546.281 191.434 553.044L193.868 556.097C198.631 562.072 204.064 567.481 210.059 572.219L264.339 615.113L282.064 629.935V629.935C298.12 640.509 308.694 657.626 310.963 676.717L312.45 689.223V691.682C312.45 702.326 314.149 712.902 317.484 723.01L324.489 744.246C328.214 755.537 334.839 765.652 343.702 773.578V773.578C349.825 779.055 356.892 783.374 364.558 786.326L391.331 796.636C397.797 799.127 403.906 802.461 409.499 806.553L413.473 809.461C426.677 819.122 435.811 833.352 439.096 849.379V849.379C440.742 857.409 443.873 865.06 448.327 871.94L448.7 872.516C458.735 888.018 474.529 898.888 492.593 902.725L542.872 913.406L565.756 918.988C575.761 921.428 585.329 925.399 594.121 930.76L602.582 935.919C618.094 945.377 630.267 959.441 637.402 976.149V976.149C646.583 997.645 664.003 1014.56 685.761 1023.1L746.216 1046.84C752.435 1049.28 758.884 1051.09 765.466 1052.25L873.592 1071.24C879.303 1072.24 885.09 1072.74 890.888 1072.74H1001.18H1056.78C1058.53 1072.74 1060.28 1072.95 1061.99 1073.37V1073.37C1079.64 1077.67 1084.75 1100.32 1070.65 1111.79L1064.57 1116.73C1061.19 1119.48 1057.18 1121.32 1052.9 1122.11L939.182 1142.91C931.588 1144.3 923.858 1144.8 916.148 1144.41L854.321 1141.29L801.718 1137.9C779.988 1136.5 759.309 1128.04 742.824 1113.81L669.477 1050.51L626.431 1006.04L590.384 969.117C580.758 959.257 573.274 947.513 568.401 934.623L547.1 878.273C544.291 870.843 540.607 863.773 536.125 857.214L529.523 847.552C526.61 843.29 523.371 839.259 519.836 835.497L509.849 824.868C501.548 816.033 491.709 808.781 480.814 803.466L447.744 787.334C435.372 781.299 424.59 772.444 416.266 761.481V761.481L404.265 740.625C398.798 731.125 391.807 722.589 383.571 715.357L369.655 703.138C361.99 696.408 355.841 688.13 351.613 678.848L350.979 677.457C348.934 672.967 347.452 668.24 346.567 663.386L343.057 644.125C342.913 643.334 342.506 642.616 341.903 642.086V642.086C338.704 639.277 342.235 634.238 345.967 636.286L347.899 637.346L390.693 658.77C394.227 660.54 397.562 662.682 400.641 665.16L411.351 673.78C417.661 678.859 421.33 686.522 421.33 694.622V694.622C421.33 701.832 424.24 708.737 429.401 713.772L452.362 736.173C461.961 745.538 473.347 752.876 485.84 757.752L504.89 765.186L538.338 776.31C552.978 781.18 566.293 789.371 577.241 800.242L596.046 818.916L625.373 855.702C629.445 860.81 633.006 866.304 636.007 872.106L650.513 900.157C661.138 920.704 678.557 936.932 699.804 946.077L753.037 968.989L811.46 991.154C818.07 993.663 824.928 995.462 831.919 996.524L945.019 1013.7C952.056 1014.77 959.188 1015.08 966.292 1014.64L1041.33 1009.93C1043.22 1009.81 1045.09 1010.3 1046.67 1011.31V1011.31C1053.3 1015.55 1051.53 1025.68 1043.87 1027.43L1025.32 1031.67C1024.42 1031.88 1023.51 1032.01 1022.59 1032.07L902.431 1039.39L854.321 1035.69L720.119 1019.01L669.477 1007.9L649.625 1001.44C632.777 995.961 617.687 986.105 605.9 972.88L591.658 956.901C587.838 952.616 584.394 948.009 581.365 943.133L567.219 920.361C562.845 913.32 557.158 907.185 550.468 902.29V902.29L525.908 884.319C520.351 880.253 514.389 876.772 508.118 873.931L411.202 830.032L366.112 806.938C362.606 805.142 360.119 801.837 359.364 797.971V797.971C358.531 793.701 355.592 790.144 351.556 788.52L307.385 770.744L265.367 756.181C261.329 754.781 257.521 752.786 254.072 750.262L248.841 746.435C241.076 740.753 236.486 731.708 236.486 722.086V722.086C236.486 719.946 236.259 717.813 235.807 715.721L228.89 683.665L227.715 669.053C226.83 658.047 222.681 647.556 215.799 638.923V638.923C211.072 632.994 205.179 628.097 198.486 624.535L183.129 616.364C181.572 615.535 179.897 614.952 178.162 614.634L175.522 614.152C167.35 612.657 159.583 618.284 158.458 626.515V626.515C158.151 628.764 158.373 631.054 159.107 633.202L160.152 636.261C163.501 646.062 171.949 653.243 182.163 654.967L192.204 656.663C196.37 657.366 200.373 658.82 204.019 660.955V660.955C208.718 663.705 213.995 665.318 219.428 665.663L269.404 668.843H282.064L299.543 669.757C311.428 670.378 323.329 668.872 334.684 665.311L388.413 648.463L502.358 605.849L585.917 565.089L641.624 539.15L709.991 503.948L787.638 461.743C794.904 457.793 801.459 452.655 807.029 446.541V446.541C814.816 437.995 824.494 431.389 835.291 427.251L872.046 413.163L920.156 396.489L970.798 374.256L998.651 357.581L1013.24 349.196C1025.11 342.368 1040.23 345.566 1048.32 356.62L1051.11 360.428C1061.1 374.071 1054.01 393.485 1037.59 397.491V397.491C1035.28 398.055 1033.06 398.963 1031.02 400.184L978.395 431.691L884.706 479.862L798.615 529.887L753.037 550.267L654.284 589.175L593.514 620.672L545.404 639.199L515.018 648.463L501.714 653.33C493.827 656.216 485.346 657.09 477.037 655.874V655.874M259.275 570.647V593.135C259.275 597.9 258.935 602.658 258.256 607.374L255.806 624.406C254.746 631.775 254.512 639.239 255.109 646.659L255.477 651.242M254.211 689.223L255.644 676.639C256.375 670.222 256.482 663.748 255.965 657.31L255.477 651.242M254.211 689.223L274.468 705.898L291.003 719.341C295.165 722.725 299.594 725.769 304.244 728.443L332.706 744.806L366.953 760.119C374.436 763.465 381.198 768.232 386.865 774.155V774.155C392.896 780.459 397.56 787.942 400.563 796.133L416.128 838.582C421.221 852.472 429.332 865.058 439.877 875.435L497.294 931.934L513.686 945.927C522.937 953.824 530.67 963.343 536.504 974.016L536.708 974.389C544.093 987.898 554.499 999.52 567.113 1008.35L588.694 1023.45C600.218 1031.52 613.314 1037.06 627.126 1039.72L631.717 1040.61C646.568 1043.47 661.875 1042.92 676.484 1039.01L758.101 1017.16L899.899 961.578M894.835 485.421L966.066 480.377C970.902 480.034 975.708 479.341 980.443 478.301L983.824 477.559C993.653 475.401 1003.1 471.773 1011.84 466.796L1021.44 461.335V461.335C1031.16 455.01 1029.9 440.395 1019.23 435.841L1013.84 433.544L970.798 420.574L927.509 406.803C917.608 403.653 908.284 398.918 899.899 392.783V392.783L846.725 353.875L828.785 340.748C820.537 334.713 811.412 329.978 801.729 326.708L800.971 326.452C789.37 322.535 777.149 320.781 764.914 321.278L753.462 321.744C743.113 322.164 732.892 324.19 723.165 327.749L712.523 331.642L694.697 338.164C680.281 343.438 664.288 342.227 650.83 334.842V334.842C644.751 331.506 638.079 329.391 631.189 328.615L624.525 327.865C614.066 326.687 603.906 323.626 594.539 318.828L583.385 313.115L565.821 301.12C561.467 298.146 564.403 291.347 569.553 292.477V292.477C570.322 292.646 571.038 293.002 571.638 293.514L578.321 299.219C583.308 303.477 589.268 306.439 595.673 307.845L611.239 311.262L634.578 316.955C639.243 318.092 643.688 319.995 647.732 322.584V322.584C656.837 328.413 667.786 330.645 678.446 328.845L682.371 328.182C690.545 326.802 698.928 327.328 706.865 329.72L737.844 339.053L764.149 345.469C771.906 347.361 779.861 348.317 787.845 348.317H813.807L874.578 350.17H925.22L1052.91 352.002C1053.87 352.016 1054.83 351.907 1055.76 351.68V351.68C1064.72 349.494 1067.47 338.1 1060.5 332.068L1049.29 322.379L1031.57 303.851L970.796 253.031C964.074 247.41 956.643 242.697 948.693 239.013L893.706 213.531C887.721 210.758 882.025 207.399 876.701 203.504L817.191 159.96C811.574 155.85 805.544 152.338 799.198 149.48L775.826 138.956L644.156 61.1408L601.11 40.7605M894.835 485.421L788.486 550.267L699.862 605.849L649.22 631.788L590.982 665.138L562.606 678.485C557.93 680.684 552.889 682.006 547.735 682.383L543.705 682.678C535.069 683.31 526.538 680.466 520.009 674.778V674.778C501.037 658.252 507.258 627.36 531.148 619.465L551.949 612.592C554.334 611.804 556.648 610.817 558.867 609.643L720.119 524.328L750.505 503.948L841.661 452.071L893.644 423.957C897.777 421.722 902.294 420.282 906.958 419.714V419.714C912.318 419.06 917.473 417.258 922.072 414.431L961.334 390.3C972.11 383.677 985.323 382.349 997.2 386.694L1000.06 387.741C1005.75 389.822 1010.71 393.517 1014.33 398.374V398.374C1026.74 415.027 1019.68 438.935 1000.22 446.174L884.706 489.126L628.963 615.113L451.716 674.401L405.241 686.767C399.1 688.401 392.818 689.446 386.48 689.887L351.818 692.303C345.855 692.718 339.862 692.356 333.992 691.226L315.492 687.664C302.649 685.191 292.116 676.028 287.887 663.652V663.652C285.734 657.352 285.348 650.582 286.771 644.078L290.191 628.438C293.011 615.54 288.982 602.1 279.532 592.88V592.88M601.11 40.7605L555.31 20.6534C552.101 19.2443 548.696 18.3302 545.212 17.9423L521.119 15.2597C494.595 12.3063 480.17 45.3816 500.381 62.8107V62.8107C503.352 65.3725 505.732 68.5475 507.358 72.1172L512.802 84.0669C515.948 90.9728 517.988 98.3307 518.847 105.871V105.871C519.666 113.065 519.401 120.342 518.059 127.457L512.64 156.203C510.86 165.649 507.66 174.77 503.149 183.258L501.341 186.66C495.354 197.923 486.745 207.579 476.24 214.814L451.211 232.05C449.913 232.944 448.313 233.287 446.762 233.004V233.004C441.105 231.969 440.054 224.313 445.222 221.792L450.368 219.282C451.258 218.848 452.058 218.249 452.725 217.516L477.037 190.833L492.229 170.453L537.807 124.134L562.023 100.964C567.803 95.4329 572.899 89.2285 577.201 82.4835L582.007 74.9485C586.287 68.2377 589.75 61.0399 592.324 53.5078L600.257 30.2889C600.822 28.6351 601.11 26.8995 601.11 25.1519V24.9318C601.11 16.2786 594.095 9.26375 585.442 9.26375V9.26375C579.523 9.26375 574.11 12.5991 571.448 17.8855L558.064 44.466L540.339 75.9628L525.147 105.607L490.679 154.47C486.66 160.169 482.055 165.432 476.94 170.173L446.651 198.244V198.244C435.365 208.154 439.29 226.661 453.491 231.551V231.551C460.167 233.85 467.663 232.457 473.003 227.839L489.138 213.887C491.196 212.107 493.38 210.477 495.672 209.01L523.102 191.448C529.509 187.346 535.426 182.527 540.74 177.084L570.725 146.367L603.642 101.901L628.963 64.8463L666.61 12.9948C669.781 8.62724 675.523 6.98645 680.523 9.01897V9.01897C687.703 11.9379 690.13 20.8939 685.406 27.0391L672.009 44.466L634.028 94.4903L588.45 150.073L544.606 191.777C540.083 196.079 535.168 199.948 529.925 203.334L494.761 226.036L489.781 229.68C485.286 232.969 487.203 240.068 492.743 240.647V240.647C494.053 240.784 495.372 240.492 496.503 239.815L514.657 228.947C519.939 225.785 525.617 223.338 531.542 221.67L537.841 219.898C549.529 216.609 561.735 215.567 573.811 216.83V216.83C585.167 218.017 596.22 221.221 606.45 226.292L669.477 257.532L712.523 274.207L798.615 313.115L834.932 330.309C839.411 332.43 843.727 334.881 847.843 337.642L902.431 374.256L955.605 403.9L960.154 406.118C972.156 411.973 985.335 415.016 998.69 415.016H1012.87C1020.12 415.016 1027.23 412.971 1033.38 409.116L1035.97 407.495C1039.73 405.136 1042.84 401.873 1045.02 398.003L1050.67 387.952C1055.36 379.625 1051.83 369.072 1043.09 365.231V365.231C1037.56 362.807 1031.15 363.658 1026.46 367.439L1014.19 377.313C1010.61 380.196 1006.58 382.473 1002.26 384.052L986.82 389.701C974.569 394.183 963.313 401.018 953.687 409.823L948.247 414.798C941.37 421.088 933.647 426.386 925.303 430.538L874.578 455.777L836.596 479.862L755.569 526.181L725.183 544.709L599.633 610.574C593.879 613.593 587.845 616.044 581.615 617.892L510.859 638.881C501.86 641.55 493.282 645.473 485.377 650.534L477.037 655.874M601.11 40.7605L586.174 87.5977C584.32 93.412 581.863 99.0164 578.843 104.32V104.32C573.478 113.742 566.408 122.085 557.995 128.925L551.384 134.3C534.366 148.136 513.271 155.993 491.348 156.661L464.376 157.484H461.065C447.729 157.484 435.614 165.666 430.445 177.959V177.959C429.446 180.335 428.731 182.858 428.344 185.406V185.406C427.096 193.624 422.623 201.004 415.915 205.912L406.138 213.066L399.065 216.948C390.335 221.738 382.458 227.939 375.752 235.299V235.299M899.899 961.578L988.523 918.964L1054.02 878.608C1067.14 870.524 1065.94 851.076 1051.92 844.667V844.667C1047.02 842.425 1041.4 842.339 1036.43 844.43L942.945 883.762L803.679 937.492L689.734 967.136L560.596 981.958H434.339C422.724 981.958 411.54 977.557 403.04 969.641V969.641C393.711 960.953 388.413 948.779 388.413 936.032V913.406L381.78 856.782C381.141 851.326 379.76 845.983 377.676 840.9L377.115 839.532C374.543 833.258 370.785 827.538 366.048 822.685V822.685C362.409 818.958 358.239 815.789 353.672 813.283L340.303 805.947V805.947C322.651 794.205 311.118 775.239 308.814 754.165L307.385 741.1V741.1C307.385 725.44 302.466 710.175 293.321 697.462L282.064 681.812L264.44 663.185C261.008 659.558 258.001 655.551 255.477 651.242V651.242M314.982 239.005L312.45 185.275V157.063C312.45 151.179 311.93 145.307 310.898 139.514L304.853 105.607L295.399 48.5385C294.972 45.9583 293.419 43.7019 291.162 42.3807V42.3807C283.025 37.6177 287.059 25.1264 296.445 26.0221L306.742 27.0048C311.629 27.4713 315.627 31.0969 316.568 35.9154L322.578 66.699L327.642 118.576L331.295 161.336C332.229 172.28 331.355 183.303 328.706 193.962L322.578 218.625L320.67 233.979C320.314 236.85 317.874 239.005 314.982 239.005V239.005Z" stroke="#CE00FF" stroke-width="2"/>
</svg>
