<svg width="554" height="756" viewBox="0 0 554 756" fill="none" xmlns="http://www.w3.org/2000/svg">
<path d="M553 120.012L536.765 157.635M527.835 176.831L475.882 311.967M453.965 376.464L435.294 419.462M532.706 124.619L521.341 142.279M514.035 155.332L440.976 266.666M527.835 115.405L480.753 167.617M477.506 171.456L413.376 252.077M496.176 130.762L403.635 214.454M493.741 143.815L408.506 229.811M493.741 125.387L395.518 206.776M486.435 115.405L387.4 187.58M436.106 134.601L380.094 182.206M475.071 116.173L434.482 143.815M456.4 116.941L363.859 162.242M418.247 130.762L343.565 162.242M380.094 151.493L341.941 167.617M400.388 132.297L355.741 147.654M355.741 143.815L339.506 151.493M351.682 137.672L336.259 140.743M413.376 123.084L372.788 135.369M438.541 98.5132L311.094 84.6925M413.376 103.12L331.388 100.817M433.671 106.191L324.082 110.798M427.988 110.798L355.741 123.084M366.294 116.941L334.635 120.78M436.106 113.102L350.059 129.226M449.906 113.102L424.741 123.084M406.071 155.332L371.976 178.367M402.824 70.1039L430.885 88.8039C435.978 92.1983 441.373 95.1179 447 97.5259L456.205 101.465C467.072 106.115 478.678 108.801 490.484 109.399L502.255 109.996C512.749 110.528 523.261 109.402 533.404 106.661L546.506 103.12M503.482 93.9063L550.565 70.1039M506.729 98.5132L526.212 93.9063M268.071 1L331.275 37.9447C337.287 41.4587 343.649 44.3352 350.259 46.5273L392.82 60.6435C399.471 62.8492 406.335 64.3499 413.299 65.1208L479.129 72.4073M279.435 82.389L183.647 72.4073M173.906 100.049L315.965 103.12M183.647 115.405L287.553 113.87M174.718 135.369L290.8 125.387M200.694 144.582L298.106 130.762M212.059 159.939L301.353 141.511M191.765 176.063L284.306 154.564M189.329 186.813L298.106 156.868M253.459 179.134L303.788 162.242M264.012 183.741L315.153 163.778M270.506 192.187L318.4 171.456M273.753 199.866L318.4 182.206M280.247 206.776L330.576 179.134M289.988 222.9L351.682 186.813M301.353 227.507L330.576 210.615M303.788 248.238L339.506 222.9M330.576 261.291L372.788 220.597M330.576 285.094L363.859 252.077M339.506 308.896L372.788 266.666M369.541 311.967L390.647 285.094M376.035 367.251L408.506 321.949M76.4941 63.9613L10.7412 55.5153M10.7412 93.9063L70.8118 98.5132M14.8 125.387L87.8588 120.78M32.6588 151.493L93.5412 143.815M10.7412 171.456L99.2235 159.939M32.6588 199.866L104.906 183.741M1 227.507L104.906 199.866M38.3412 229.811L117.082 206.776M4.24706 256.684L120.329 222.9M48.8941 266.666L126.012 235.185M55.3882 282.022L117.082 256.684M70.8118 291.236L126.012 266.666M99.2235 291.236L131.694 276.648M48.8941 362.644L174.718 291.236M44.0235 389.517L174.718 311.967M64.3176 422.534L182.024 335.77M48.8941 493.173L251.835 325.788M55.3882 533.1C77.4682 515.901 200.965 402.57 259.953 348.055M79.7412 579.937L277 371.857M110.588 632.149L289.988 408.713M174.718 695.11L259.953 548.456M301.353 493.173L363.859 389.517M289.988 755L390.647 533.1" stroke="#DBFF00" stroke-width="2"/>
</svg>
