<svg width="27" height="27" viewBox="0 0 27 27" fill="none" xmlns="http://www.w3.org/2000/svg">
<path d="M22.8032 5.33253C23.5115 5.97604 24.0411 6.79183 24.3408 7.70061C24.6404 8.60939 24.6998 9.58024 24.5132 10.5188C24.3569 11.7352 23.8306 12.8742 23.0056 13.7817C22.1806 14.6892 21.0968 15.3213 19.9007 15.5925C18.8654 15.8858 17.7685 15.8832 16.7346 15.5849C15.7006 15.2866 14.7709 14.7047 14.0507 13.905C15.2329 14.3633 16.527 14.4494 17.7595 14.1519C18.992 13.8543 20.1041 13.1872 20.947 12.24C21.9125 11.4069 22.6057 10.3031 22.9366 9.07154C23.2676 7.83996 23.2211 6.53739 22.8032 5.33253ZM13.8595 12.9713C14.3436 11.7811 14.4445 10.4695 14.1481 9.21931C13.8516 7.96908 13.1727 6.84243 12.2057 5.99628C11.3758 5.02693 10.2696 4.3341 9.03525 4.01042C7.80086 3.68675 6.49708 3.74767 5.29825 4.18503C5.98019 3.45976 6.83688 2.92168 7.78631 2.62227C8.73573 2.32287 9.74612 2.27217 10.7207 2.47503C11.9192 2.70119 13.0244 3.27521 13.8987 4.12548C14.773 4.97575 15.3776 6.06463 15.637 7.25628C15.8731 8.28095 15.8329 9.34993 15.5206 10.354C15.2083 11.3581 14.6351 12.2613 13.8595 12.9713ZM21.5995 22.8263C20.9414 23.5499 20.1034 24.0863 19.1706 24.3808C18.2379 24.6752 17.2438 24.7172 16.2895 24.5025C15.115 24.3142 14.0233 23.7802 13.1537 22.9687C12.284 22.1572 11.676 21.1049 11.407 19.9463C11.1121 18.9094 11.1094 17.8113 11.3993 16.773C11.6891 15.7347 12.2602 14.7967 13.0495 14.0625C12.6063 15.2495 12.5314 16.5426 12.8344 17.7729C13.1375 19.0031 13.8045 20.1134 14.7482 20.9588C15.5729 21.919 16.6664 22.6101 17.8875 22.943C19.1087 23.2759 20.4016 23.2352 21.5995 22.8263ZM4.26325 21.8025C3.43897 21.0565 2.8453 20.0903 2.55227 19.0178C2.25925 17.9454 2.2791 16.8115 2.6095 15.75C2.90337 14.5602 3.55677 13.4898 4.48075 12.6846C5.40473 11.8794 6.55439 11.3785 7.77325 11.25C8.71522 11.0894 9.68258 11.1714 10.5841 11.4883C11.4856 11.8052 12.2915 12.3466 12.9257 13.0613C11.692 12.5842 10.3387 12.5112 9.06084 12.853C7.78299 13.1947 6.64668 13.9334 5.81575 14.9625C4.8898 15.8079 4.24475 16.9164 3.96722 18.1391C3.6897 19.3619 3.793 20.6402 4.26325 21.8025ZM13.7582 13.5C14.966 13.1429 16.023 12.3991 16.7669 11.3828C17.5107 10.3666 17.9003 9.13419 17.8757 7.87503C18.0733 6.51584 17.833 5.12907 17.1898 3.91552C16.5467 2.70197 15.5339 1.72463 14.2982 1.12503C15.281 1.08394 16.2573 1.30124 17.1298 1.75526C18.0023 2.20928 18.7405 2.88415 19.2707 3.71253C19.9869 4.66381 20.3964 5.81066 20.4446 7.00041C20.4928 8.19017 20.1776 9.3664 19.5407 10.3725C18.9785 11.3937 18.1344 12.2315 17.1091 12.786C16.0838 13.3406 14.9206 13.5884 13.7582 13.5ZM13.2295 13.5C12.0075 13.8693 10.9405 14.6296 10.1926 15.6641C9.44466 16.6986 9.05711 17.9501 9.0895 19.2263C8.91554 20.5527 9.1699 21.9001 9.81546 23.0718C10.461 24.2435 11.4641 25.1784 12.6782 25.74C11.5532 26.1338 9.41575 25.2225 8.17825 23.85C7.34418 22.9321 6.80465 21.7851 6.62941 20.5573C6.45417 19.3294 6.65128 18.0773 7.19526 16.9627C7.73923 15.8481 8.60506 14.9223 9.6808 14.305C10.7565 13.6877 11.9927 13.4073 13.2295 13.5ZM25.8745 14.2088C25.9217 15.2143 25.702 16.2143 25.2377 17.1074C24.7733 18.0005 24.0809 18.7549 23.2307 19.2938C22.2746 19.9978 21.1279 20.396 19.9412 20.4362C18.7546 20.4763 17.5835 20.1565 16.582 19.5188C15.6359 18.9874 14.8549 18.2052 14.3249 17.2584C13.7949 16.3115 13.5366 15.2368 13.5782 14.1525C14.0846 15.3364 14.947 16.3333 16.0457 17.0046C17.1445 17.676 18.425 17.9885 19.7095 17.8988C20.9928 17.9985 22.2754 17.697 23.3798 17.0359C24.4843 16.3748 25.356 15.3869 25.8745 14.2088ZM1.1245 12.6338C1.08905 11.6153 1.33094 10.6064 1.82432 9.71475C2.31771 8.8231 3.04404 8.08223 3.92575 7.57128C4.88649 6.91504 6.02022 6.55836 7.18364 6.54635C8.34705 6.53433 9.48791 6.86752 10.462 7.50378C11.3853 8.0469 12.1452 8.82873 12.6619 9.76708C13.1786 10.7054 13.433 11.7656 13.3982 12.8363C12.8954 11.672 12.0505 10.688 10.9755 10.015C9.90064 9.3419 8.64651 9.01148 7.3795 9.06753C6.09994 8.96915 4.82024 9.25628 3.70538 9.89191C2.59051 10.5275 1.69159 11.4825 1.1245 12.6338Z" fill="#DBFF00"/>
</svg>
