<svg width="204" height="204" viewBox="0 0 204 204" fill="none" xmlns="http://www.w3.org/2000/svg">
<path d="M43.5412 64.6509C52.3316 64.6509 59.4575 57.5249 59.4575 48.7346C59.4575 39.9443 52.3316 32.8184 43.5412 32.8184C34.7509 32.8184 27.625 39.9443 27.625 48.7346C27.625 57.5249 34.7509 64.6509 43.5412 64.6509Z" stroke="#CE00FF" stroke-linecap="round" stroke-linejoin="round"/>
<path d="M132.868 138.074C156.893 138.074 176.375 118.597 176.375 94.5672C176.375 70.5377 156.897 51.0557 132.868 51.0557C113.33 51.0557 96.8021 63.9332 91.3026 81.6642C85.7572 77.2977 78.9042 74.9236 71.8461 74.9237C63.4712 74.9237 55.4393 78.2506 49.5174 84.1725C43.5955 90.0944 40.2686 98.1263 40.2686 106.501C40.2686 114.876 43.5955 122.908 49.5174 128.83C55.4393 134.752 63.4712 138.079 71.8461 138.079L132.868 138.074Z" stroke="#CE00FF" stroke-linecap="round" stroke-linejoin="round"/>
<path d="M135.175 156.961C137.137 156.961 138.728 155.371 138.728 153.408C138.728 151.446 137.137 149.855 135.175 149.855C133.213 149.855 131.622 151.446 131.622 153.408C131.622 155.371 133.213 156.961 135.175 156.961Z" fill="#CE00FF"/>
<path d="M120.959 171.177C122.922 171.177 124.512 169.587 124.512 167.624C124.512 165.662 122.922 164.071 120.959 164.071C118.997 164.071 117.406 165.662 117.406 167.624C117.406 169.587 118.997 171.177 120.959 171.177Z" fill="#CE00FF"/>
<path d="M102 156.961C103.963 156.961 105.553 155.371 105.553 153.408C105.553 151.446 103.963 149.855 102 149.855C100.038 149.855 98.4473 151.446 98.4473 153.408C98.4473 155.371 100.038 156.961 102 156.961Z" fill="#CE00FF"/>
<path d="M87.7835 171.177C89.7457 171.177 91.3365 169.587 91.3365 167.624C91.3365 165.662 89.7457 164.071 87.7835 164.071C85.8212 164.071 84.2305 165.662 84.2305 167.624C84.2305 169.587 85.8212 171.177 87.7835 171.177Z" fill="#CE00FF"/>
<path d="M68.8245 156.961C70.7868 156.961 72.3775 155.371 72.3775 153.408C72.3775 151.446 70.7868 149.855 68.8245 149.855C66.8622 149.855 65.2715 151.446 65.2715 153.408C65.2715 155.371 66.8622 156.961 68.8245 156.961Z" fill="#CE00FF"/>
<path d="M54.6087 171.177C56.5709 171.177 58.1617 169.587 58.1617 167.624C58.1617 165.662 56.5709 164.071 54.6087 164.071C52.6464 164.071 51.0557 165.662 51.0557 167.624C51.0557 169.587 52.6464 171.177 54.6087 171.177Z" fill="#CE00FF"/>
</svg>
