<svg width="48" height="48" viewBox="0 0 48 48" fill="none" xmlns="http://www.w3.org/2000/svg">
<path d="M32.8044 41.9796C33.0645 42.0317 33.3346 41.9784 33.5553 41.8314C33.776 41.6843 33.9293 41.4557 33.9814 41.1956L35.4814 33.6956C35.5093 33.556 35.507 33.4121 35.4748 33.2734C35.4425 33.1348 35.381 33.0046 35.2944 32.8916L29.2164 24.9436C29.3331 24.6016 29.4381 24.2479 29.5314 23.8826C29.5686 23.9023 29.607 23.9197 29.6464 23.9346L36.0394 26.3566L40.2854 30.6986C40.4717 30.8842 40.7236 30.9889 40.9865 30.9902C41.2494 30.9914 41.5023 30.889 41.6903 30.7052C41.8783 30.5214 41.9863 30.271 41.9911 30.0081C41.9958 29.7452 41.8967 29.491 41.7154 29.3006L37.3154 24.8006C37.2134 24.6966 37.0904 24.6156 36.9554 24.5646L30.3554 22.0646C30.1974 22.0046 30.0354 21.9876 29.8794 22.0066C29.9194 21.6766 29.9498 21.3413 29.9704 21.0006L35.5114 21.4956C35.6805 21.5108 35.8506 21.4826 36.0058 21.4139C36.161 21.3451 36.2961 21.238 36.3984 21.1026L39.7984 16.6026C39.8776 16.4978 39.9354 16.3784 39.9684 16.2513C40.0015 16.1242 40.0092 15.9918 39.9911 15.8617C39.973 15.7316 39.9294 15.6064 39.8629 15.4931C39.7964 15.3798 39.7082 15.2808 39.6034 15.2016C39.4986 15.1224 39.3793 15.0646 39.2521 15.0316C39.125 14.9985 38.9926 14.9908 38.8625 15.0089C38.7325 15.0271 38.6072 15.0706 38.4939 15.1371C38.3807 15.2036 38.2816 15.2918 38.2024 15.3966L35.1364 19.4536L30.0894 19.0036C30.0494 18.9996 30.0098 18.9983 29.9704 18.9996C29.9604 18.8309 29.9481 18.6636 29.9334 18.4976C30.1259 18.5105 30.3179 18.4674 30.4864 18.3736L34.9864 15.8736C35.1937 15.7582 35.3532 15.5728 35.4364 15.3506L38.4364 7.35061C38.4866 7.22684 38.5115 7.09428 38.5096 6.96074C38.5078 6.8272 38.4792 6.69539 38.4255 6.57309C38.3719 6.45078 38.2943 6.34046 38.1973 6.24864C38.1003 6.15681 37.9859 6.08535 37.8609 6.03845C37.7358 5.99156 37.6026 5.97019 37.4692 5.97561C37.3358 5.98102 37.2047 6.01311 37.0839 6.06998C36.9631 6.12685 36.8548 6.20735 36.7656 6.30673C36.6764 6.40611 36.608 6.52235 36.5644 6.64861L33.6934 14.3036L29.6354 16.5576C28.7944 12.7306 26.5884 9.99961 24.0004 9.99961C21.4124 9.99961 19.2064 12.7306 18.3654 16.5576L14.3074 14.3036L11.4374 6.64861C11.3443 6.40023 11.1564 6.19901 10.9149 6.08921C10.6735 5.9794 10.3983 5.97002 10.1499 6.06311C9.90156 6.1562 9.70033 6.34415 9.59053 6.5856C9.48073 6.82705 9.47134 7.10223 9.56443 7.35061L12.5644 15.3506C12.6476 15.5728 12.8071 15.7582 13.0144 15.8736L17.5144 18.3736C17.683 18.4674 17.875 18.5105 18.0674 18.4976C18.0528 18.6636 18.0404 18.8309 18.0304 18.9996C17.9904 18.9983 17.9508 18.9996 17.9114 19.0036L12.8644 19.4536L9.79843 15.3966C9.6385 15.185 9.40105 15.0455 9.13832 15.0089C8.87558 14.9724 8.60907 15.0417 8.39743 15.2016C8.18579 15.3615 8.04634 15.599 8.00977 15.8617C7.9732 16.1245 8.0425 16.391 8.20243 16.6026L11.6024 21.1026C11.7048 21.238 11.8399 21.3451 11.9951 21.4139C12.1503 21.4826 12.3204 21.5108 12.4894 21.4956L18.0294 21.0006C18.0508 21.3406 18.0814 21.6759 18.1214 22.0066C17.9654 21.9866 17.8034 22.0046 17.6464 22.0646L11.0464 24.5646C10.9104 24.6161 10.7872 24.6966 10.6854 24.8006L6.28543 29.3006C6.19161 29.3941 6.11729 29.5052 6.06679 29.6277C6.01628 29.7501 5.9906 29.8813 5.99122 30.0138C5.99185 30.1462 6.01877 30.2772 6.07043 30.3991C6.12209 30.5211 6.19745 30.6315 6.29215 30.7241C6.38684 30.8167 6.49899 30.8895 6.62207 30.9384C6.74514 30.9873 6.87671 31.0113 7.00912 31.0089C7.14153 31.0065 7.27215 30.9779 7.3934 30.9246C7.51465 30.8713 7.62411 30.7945 7.71543 30.6986L11.9614 26.3566L18.3544 23.9346C18.3944 23.9199 18.4328 23.9026 18.4694 23.8826C18.5628 24.2486 18.6678 24.6023 18.7844 24.9436L12.7064 32.8916C12.6198 33.0046 12.5584 33.1348 12.5261 33.2734C12.4939 33.4121 12.4916 33.556 12.5194 33.6956L14.0194 41.1956C14.0714 41.4558 14.2246 41.6847 14.4454 41.8319C14.6661 41.9791 14.9363 42.0326 15.1964 41.9806C15.4566 41.9286 15.6855 41.7754 15.8327 41.5547C15.9799 41.334 16.0334 41.0638 15.9814 40.8036L14.5694 33.7476L19.7214 27.0096C20.0718 27.6151 20.5019 28.1708 21.0004 28.6616V32.4996C21.0004 32.7648 21.1058 33.0192 21.2933 33.2067C21.4809 33.3943 21.7352 33.4996 22.0004 33.4996C22.2656 33.4996 22.52 33.3943 22.7075 33.2067C22.8951 33.0192 23.0004 32.7648 23.0004 32.4996V31.9996H25.0004V32.4996C25.0004 32.7648 25.1058 33.0192 25.2933 33.2067C25.4809 33.3943 25.7352 33.4996 26.0004 33.4996C26.2656 33.4996 26.52 33.3943 26.7075 33.2067C26.8951 33.0192 27.0004 32.7648 27.0004 32.4996V28.6616C27.4989 28.1708 27.9291 27.6151 28.2794 27.0096L33.4314 33.7476L32.0194 40.8036C31.9676 41.0636 32.0212 41.3336 32.1684 41.5541C32.3157 41.7747 32.5444 41.9277 32.8044 41.9796Z" fill="#DBFF00"/>
</svg>
