<svg width="353" height="353" viewBox="0 0 353 353" fill="none" xmlns="http://www.w3.org/2000/svg">
<path d="M186.226 163.129C265.243 147.429 324.944 112.786 319.573 85.753C314.202 58.7195 245.791 49.5321 166.774 65.2323C87.7571 80.9326 28.0556 115.575 33.427 142.609C38.7984 169.642 107.209 178.83 186.226 163.129Z" stroke="#DBFF00" stroke-width="2" stroke-linecap="round" stroke-linejoin="round"/>
<path d="M73.6887 167.513C71.3179 172.266 70.4021 177.612 71.0559 182.883C74.8433 210.182 124.352 225.875 181.641 217.94C238.929 210.005 282.304 181.427 278.517 154.121C277.4 147.405 273.93 141.305 268.729 136.912" stroke="#DBFF00" stroke-width="2" stroke-linecap="round" stroke-linejoin="round"/>
<path d="M116.461 216.33C116.491 217.779 116.606 219.226 116.807 220.662C120.594 247.96 153.452 265.963 190.201 260.874C199.48 259.623 208.495 256.879 216.897 252.748" stroke="#DBFF00" stroke-width="2" stroke-linecap="round" stroke-linejoin="round"/>
<path d="M129.61 244.585C128.7 248.719 128.526 252.981 129.095 257.175C132.022 278.274 153.474 293.446 180.206 295.439" stroke="#DBFF00" stroke-width="2" stroke-linecap="round" stroke-linejoin="round"/>
</svg>
