<svg width="116" height="91" viewBox="0 0 116 91" fill="none" xmlns="http://www.w3.org/2000/svg">
<path d="M50.3225 34.9221L50.7587 34.4947C51.7026 33.5698 52.7885 32.802 53.9753 32.2206V32.2206C55.2529 31.5946 56.629 31.1936 58.0429 31.0353L59.3624 30.8875C61.3892 30.6606 63.4387 30.7446 65.4401 31.1369L65.5145 31.1514C67.1679 31.4755 68.7751 32.002 70.2998 32.7191L71.5141 33.2903C73.8048 34.3677 75.8611 35.8851 77.5661 37.7562L77.6862 37.888C78.9784 39.3062 80.038 40.92 80.8257 42.6694L81.0925 43.262C81.9732 45.2181 82.4286 47.3388 82.4286 49.4839V49.4839C82.4286 52.1314 81.735 54.7328 80.4169 57.0289L79.7388 58.2101C78.7456 59.9403 77.5023 61.5144 76.0491 62.8813L75.7556 63.1575C74.3164 64.5113 72.7086 65.6739 70.9719 66.6163L70.3518 66.9529C68.4823 67.9674 66.505 68.7689 64.4568 69.3424L63.8196 69.5208C61.9595 70.0415 60.0588 70.4042 58.1377 70.605L57.6339 70.6577C55.246 70.9072 52.8406 70.9429 50.4464 70.7641L49.5727 70.6989C46.0507 70.436 42.5687 69.7836 39.1905 68.7537L38.4674 68.5333C36.7567 68.0118 35.0856 67.3679 33.4672 66.6067L32.0917 65.9598C29.9857 64.9692 28.022 63.7007 26.2532 62.1881V62.1881C24.624 60.7948 23.1731 59.2056 21.9336 57.4566L19.1469 53.5246V53.5246C17.3133 50.6498 16.0542 47.4178 15.4698 44.0584V44.0584C15.1305 42.1079 15.0171 40.1249 15.1317 38.1484L15.145 37.9176C15.33 34.7287 16.0635 31.5955 17.3135 28.6559L17.4071 28.4359C18.5603 25.7238 20.1181 23.2023 22.0274 20.9573L23.8 18.873L25.7921 17.0358C29.7252 13.4085 34.0513 10.2321 38.6898 7.56557V7.56557L40.5319 6.80918C45.808 4.64275 51.2638 2.94302 56.8367 1.72951V1.72951L65.6776 1H76.3796L82.4286 1.36475M61.9551 33.8279L63.618 33.9582C65.5936 34.1131 67.522 34.6404 69.3016 35.5122V35.5122C69.9867 35.8479 70.6464 36.233 71.2756 36.6646L72.8482 37.7433C73.6493 38.2927 74.3915 38.9234 75.0631 39.6253V39.6253C76.2412 40.8567 77.1866 42.2913 77.8535 43.8596L77.9454 44.0756C78.4497 45.2618 78.7754 46.5163 78.9116 47.798V47.798C79.0833 49.413 78.9516 51.0458 78.5234 52.6124L78.1502 53.9777C77.9011 54.8891 77.5591 55.7725 77.1297 56.614V56.614C76.3269 58.1873 75.2298 59.5921 73.8979 60.7522L73.5189 61.0823C72.3302 62.1177 70.9985 62.9764 69.5649 63.6319L68.4557 64.1391C66.9178 64.8424 65.3122 65.3867 63.6637 65.7636L59.1263 66.801C56.3728 67.4305 53.5444 67.6699 50.7243 67.512V67.512C49.2177 67.4276 47.7196 67.2302 46.2426 66.9215L45.2262 66.709C42.7391 66.1891 40.3246 65.3681 38.0361 64.2641V64.2641C36.3042 63.4286 34.6529 62.4352 33.1034 61.2964L30.5777 59.4403C28.859 58.1772 27.3201 56.6864 26.0031 55.0087L25.6471 54.5553C24.7292 53.386 23.9538 52.1114 23.3375 50.7586V50.7586C22.4125 48.7283 21.858 46.5488 21.7003 44.3232L21.4735 41.123L21.7531 36.5203C21.8762 34.4935 22.3014 32.4966 23.0147 30.5955V30.5955C23.8422 28.3901 25.0457 26.3447 26.5717 24.5503L27.9945 22.8773C29.2285 21.4263 30.586 20.085 32.0516 18.8685L33.0011 18.0804C36.1596 15.4588 39.6469 13.2607 43.3745 11.5418L45.6694 10.4836L45.989 10.368C49.7962 8.99051 53.7477 8.05034 57.7673 7.56557V7.56557L67.0735 6.83607L70.3841 6.97266C74.0635 7.12446 77.7219 7.60567 81.3153 8.4105V8.4105C86.3801 9.54486 91.2813 11.3143 95.9026 13.6769L99.6449 15.5902L107.555 21.0615L114.069 26.8975M112.208 65.9262L114.069 60.0902L114.465 58.0745C114.821 56.2614 115 54.418 115 52.5702V52.5702C115 50.2965 114.729 48.031 114.192 45.8217L114.036 45.1816C113.44 42.7266 112.562 40.326 111.44 38.0628V38.0628C110.41 35.9863 109.164 34.0011 107.738 32.1729L107.128 31.3901C105.555 29.3715 103.809 27.4933 101.911 25.7764L98.7143 22.8852L97.9812 22.3517C94.1412 19.5565 89.9766 17.2371 85.5783 15.4443L84.5317 15.0176C81.8944 13.9426 79.1639 13.1121 76.3746 12.5367V12.5367C73.2839 11.8991 70.1364 11.5779 66.9806 11.5779H65.9776C63.6103 11.5779 61.247 11.775 58.9123 12.1672V12.1672C56.9107 12.5034 54.9357 12.982 53.0023 13.5995L48.099 15.1655C44.9421 16.1737 41.9324 17.595 39.1482 19.3924L38.0425 20.1062C36.3086 21.2255 34.7119 22.5443 33.2852 24.0355V24.0355C31.9292 25.4528 30.7354 27.0167 29.7259 28.6984L28.8433 30.1687C27.9666 31.629 27.2871 33.199 26.8226 34.8378V34.8378C26.0575 37.5364 25.89 40.3694 26.3317 43.1394L26.5918 44.7705L27.3995 47.6196C28.0962 50.0771 29.2305 52.3887 30.748 54.4434V54.4434C32.6073 56.9609 35.0001 59.0363 37.7551 60.5211L38.6454 61.0009C40.2217 61.8505 41.8823 62.5333 43.6003 63.0383L45.5213 63.603C47.4748 64.1772 49.4878 64.5247 51.5207 64.6385V64.6385C53.8142 64.7669 56.1146 64.597 58.3643 64.1329L61.4054 63.5055C63.0076 63.175 64.5673 62.6648 66.0551 61.9845L66.6935 61.6925C68.4851 60.8733 70.1264 59.7589 71.5489 58.396L72.1859 57.7858C73.1145 56.896 73.8954 55.8639 74.499 54.7283L74.784 54.192C75.5262 52.7958 75.9143 51.2387 75.9143 49.6574V49.6574C75.9143 48.3582 75.6522 47.0723 75.1438 45.8767L74.6964 44.8245C74.2688 43.8187 73.7343 42.8618 73.1024 41.9701L71.7265 40.0287M78.2408 90L81.5727 88.3676C84.3092 87.0269 86.9192 85.4424 89.3713 83.6333L89.8114 83.3086C92.3277 81.4521 94.6457 79.3408 96.7284 77.0084L96.9275 76.7855C99.0427 74.4167 100.888 71.8198 102.428 69.0427L103.094 67.8422C104.203 65.8417 105.085 63.723 105.722 61.5259V61.5259C106.628 58.4003 107.029 55.15 106.911 51.8978L106.828 49.6361C106.694 45.9395 105.86 42.302 104.37 38.916V38.916C102.787 35.3176 100.496 32.0749 97.6323 29.3814L97.0634 28.8463C95.6849 27.5495 94.1977 26.3733 92.6182 25.3307L90.666 24.042C87.6673 22.0624 84.4377 20.4571 81.0491 19.2617V19.2617C78.2534 18.2756 75.3654 17.574 72.4288 17.1678L68.9347 16.6844H59.6286L56.5332 17.0655C53.6449 17.4211 50.8127 18.1376 48.1028 19.1983L47.7654 19.3304C44.8328 20.4783 42.0836 22.0486 39.6051 23.9915L38.6847 24.713C36.8366 26.1617 35.2083 27.8706 33.8506 29.7865L32.9786 31.0168C31.8326 32.6339 30.9936 34.4479 30.5037 36.3684V36.3684C30.0701 38.0678 29.9159 39.8263 30.0471 41.5752L30.0807 42.0229C30.2354 44.0839 30.7269 46.1055 31.5356 48.0074L31.6678 48.3183C32.6193 50.556 33.956 52.6093 35.6172 54.385V54.385C37.341 56.2277 39.3859 57.7411 41.6518 58.8513L43.1561 59.5883C44.8258 60.4064 46.5861 61.025 48.4005 61.4314V61.4314C50.9059 61.9925 53.486 62.1426 56.0396 61.8757L57.2483 61.7493C58.5217 61.6162 59.7787 61.3562 61.0005 60.9731V60.9731C62.8668 60.3879 64.6328 59.5212 66.2375 58.4031L68.0041 57.1721L69.6121 55.7315C70.6959 54.7606 71.5325 53.5452 72.0526 52.1862V52.1862C72.4522 51.142 72.6571 50.0333 72.6571 48.9152V48.7828M31.2449 88.1762L35.898 89.0623L41.4816 89.6352L53.5796 89.2705L54.5039 89.1445C61.0055 88.2581 67.3998 86.7115 73.5878 84.5287V84.5287L79.1549 81.8271C81.9498 80.4708 84.5921 78.8204 87.037 76.9038L89.2261 75.1878C92.1133 72.9245 94.5468 70.136 96.3985 66.969V66.969C97.9329 64.3447 99.0468 61.4962 99.6999 58.5272L99.8699 57.7539C100.644 54.2362 100.75 50.6044 100.182 47.0475L100.018 46.0164C99.4658 42.5529 98.1625 39.2521 96.1995 36.3456V36.3456C95.396 35.1558 94.4876 34.0404 93.485 33.0127L91.7224 31.2059C89.8752 29.3123 87.8211 27.6324 85.5987 26.1977V26.1977C82.5725 24.2441 79.2652 22.7651 75.7915 21.812L75.2793 21.6715C72.9161 21.0231 70.4968 20.6003 68.0537 20.4088L65.8586 20.2367C63.5712 20.0574 61.2723 20.0872 58.9904 20.3257L58.7483 20.351C56.5482 20.581 54.3748 21.0181 52.2569 21.6567V21.6567C50.3503 22.2315 48.496 22.9674 46.7141 23.8563L46.514 23.9561C45.0224 24.7001 43.5896 25.5563 42.2276 26.5172L41.0813 27.3259C40.1096 28.0114 39.2065 28.7892 38.3845 29.6484L37.5053 30.5673C36.1415 31.9927 35.1211 33.7105 34.5217 35.59V35.59C34.1996 36.6 34.0026 37.6456 33.9351 38.7035L33.8182 40.537C33.6559 43.0809 34.0909 45.6274 35.0884 47.9732V47.9732C35.93 49.9525 37.154 51.7462 38.6903 53.2515L39.6238 54.1663C41.1604 55.6719 42.952 56.8928 44.9152 57.7723V57.7723C47.2528 58.8194 49.7853 59.3607 52.3467 59.3607H53.2451C55.0129 59.3607 56.7745 59.1512 58.493 58.7367L61.9551 57.9016M1 60.8197L2.56674 62.7643C5.23388 66.0747 8.3109 69.0327 11.7239 71.5673V71.5673C14.1858 73.3956 16.8101 74.9944 19.5639 76.3436L21.0883 77.0905C24.7489 78.884 28.573 80.3224 32.508 81.3861V81.3861C37.5408 82.7465 42.7214 83.4848 47.9339 83.5845L49.7134 83.6185C55.9694 83.7381 62.2013 82.8117 68.1519 80.8776L72.2691 79.5394C76.2154 78.2567 79.8867 76.2467 83.0935 73.6132L83.3853 73.3736C86.4422 70.8632 88.9951 67.7957 90.9088 64.3338L91.4862 63.2893C93.1847 60.2169 94.2317 56.8273 94.5619 53.3323L94.5927 53.0071C94.8567 50.213 94.6228 47.3944 93.902 44.682V44.682C93.0859 41.6111 91.6611 38.7354 89.7123 36.2257L89.0963 35.4323C87.1464 32.9212 84.7924 30.7518 82.1306 29.013L81.3564 28.5072C78.9811 26.9556 76.3981 25.7481 73.6842 24.9208V24.9208C70.8438 24.0549 67.8906 23.6148 64.9211 23.6148H63.9454C61.6927 23.6148 59.4449 23.8227 57.2305 24.236L53.2755 24.9742C51.6228 25.2827 50.0125 25.7858 48.4781 26.4731V26.4731C45.7071 27.7144 43.2336 29.534 41.2237 31.8099L40.0857 33.0984L39.0185 34.667C37.3077 37.1816 36.5757 40.2351 36.9606 43.252V43.252C37.1804 44.9748 37.7579 46.6326 38.6561 48.119L38.9317 48.5752C40.5879 51.3161 43.079 53.4541 46.0395 54.6756L50.3225 56.4426M2.39592 26.168L1.93061 32.0041L2.2387 40.2155C2.34316 42.9995 2.77198 45.7618 3.51648 48.4464L3.70522 49.127C4.3807 51.5628 5.35911 53.9042 6.61752 56.0963V56.0963C8.13721 58.7436 10.0492 61.1454 12.2884 63.2198L14.238 65.026C17.4946 68.043 21.1569 70.5903 25.1185 72.5939L27.1534 73.623C31.4109 75.7762 35.9504 77.319 40.6381 78.206V78.206C44.9053 79.0134 49.2584 79.2704 53.5909 78.9708L56.7683 78.751C60.8229 78.4706 64.8109 77.5733 68.5949 76.0902L68.7878 76.0145C72.2793 74.646 75.5524 72.7755 78.5038 70.4619L80.5144 68.8858C83.0089 66.9304 85.1113 64.5212 86.7111 61.785L87.016 61.2635C88.5932 58.566 89.5872 55.5581 89.9317 52.4524V52.4524C90.2007 50.0274 90.0691 47.5674 89.5407 45.1854L89.4252 44.6649C88.801 41.8512 87.57 39.2077 85.8182 36.9191V36.9191C84.8034 35.5931 83.6248 34.4009 82.3107 33.3707L81.7025 32.894C80.3288 31.8171 78.8498 30.882 77.2879 30.1029L76.8545 29.8867C75.2999 29.1112 73.6822 28.4692 72.0188 27.9677L70.7125 27.5738C69.2199 27.1238 67.6912 26.8037 66.1434 26.617V26.617C63.6732 26.3191 61.1738 26.3635 58.7157 26.7489L55.4408 27.2623L52.6542 27.9176C51.416 28.2088 50.2246 28.6719 49.1148 29.2933V29.2933C48.0633 29.8821 47.0945 30.6076 46.2338 31.451L45.1614 32.5018C44.2622 33.383 43.4663 34.3638 42.7893 35.4252L42.1291 36.4603C41.6998 37.1334 41.371 37.8656 41.1533 38.6338V38.6338C40.7588 40.0253 40.7394 41.4964 41.0969 42.8978L41.4816 44.4057M35.4327 1.72951L34.5841 2.27728C29.8875 5.30929 25.4966 8.79061 21.4735 12.6721V12.6721L16.473 19.0186C13.3344 23.002 11.1535 27.6537 10.0989 32.6142V32.6142C9.61795 34.8761 9.37551 37.1822 9.37551 39.4947V40.9025C9.37551 45.5987 10.5214 50.224 12.7136 54.3771V54.3771C14.2004 57.1937 16.1431 59.7448 18.4629 61.9271L19.5657 62.9644C22.6765 65.8906 26.2588 68.2708 30.1618 70.0045L32.7517 71.155C36.3818 72.7675 40.2226 73.8561 44.159 74.3881V74.3881C49.1576 75.0637 54.237 74.832 59.1533 73.704L66.3582 72.051C69.2959 71.377 72.0998 70.2151 74.6532 68.6138L74.9597 68.4216C76.8282 67.2498 78.5286 65.8292 80.0141 64.199L80.204 63.9905C81.6791 62.3717 82.9088 60.5454 83.8539 58.5697L84.4974 57.2245C85.8823 54.3295 86.4288 51.1045 86.075 47.9148V47.9148C85.8182 45.5996 85.0933 43.3608 83.9444 41.3344L83.6533 40.8211C82.5347 38.8481 81.0896 37.0792 79.3793 35.5895L79.1904 35.425C78.2489 34.605 77.2379 33.8684 76.1687 33.2237L74.6051 32.2808C72.6948 31.1289 70.6377 30.2403 68.4896 29.6389L67.9423 29.4856C66.1308 28.9785 64.2584 28.7213 62.3772 28.7213V28.7213C60.8596 28.7213 59.3466 28.8887 57.8657 29.2204L53.5796 30.1803" stroke="#DBFF00" stroke-width="2"/>
</svg>
