<svg width="43" height="152" viewBox="0 0 43 152" fill="none" xmlns="http://www.w3.org/2000/svg">
<path d="M8.82448 70.6436C8.82448 70.6436 16.649 86.9298 16.649 94.7426C16.649 97.5044 15.8246 100.153 14.3572 102.106C12.8898 104.059 10.8997 105.156 8.82448 105.156C6.7493 105.156 4.75911 104.059 3.29173 102.106C1.82436 100.153 1 97.5044 1 94.7426C1 86.9298 8.82448 70.6436 8.82448 70.6436Z" stroke="#CE00FF" stroke-linecap="round" stroke-linejoin="round"/>
<path d="M33.8245 1.28613C33.8245 1.28613 41.649 17.5723 41.649 25.3852C41.649 28.147 40.8246 30.7956 39.3572 32.7485C37.8898 34.7014 35.8997 35.7985 33.8245 35.7985C31.7493 35.7985 29.7591 34.7014 28.2917 32.7485C26.8244 30.7956 26 28.147 26 25.3852C26 17.5723 33.8245 1.28613 33.8245 1.28613Z" stroke="#CE00FF" stroke-linecap="round" stroke-linejoin="round"/>
<path d="M28.3147 116.863C28.3147 116.863 36.1392 133.149 36.1392 140.962C36.1392 143.724 35.3148 146.373 33.8475 148.326C32.3801 150.279 30.3899 151.376 28.3147 151.376C26.2395 151.376 24.2493 150.279 22.782 148.326C21.3146 146.373 20.4902 143.724 20.4902 140.962C20.4902 133.149 28.3147 116.863 28.3147 116.863Z" stroke="#CE00FF" stroke-linecap="round" stroke-linejoin="round"/>
</svg>
