<svg width="84" height="83" viewBox="0 0 84 83" fill="none" xmlns="http://www.w3.org/2000/svg">
<path d="M43.9487 38.1096C43.9487 26.2302 28.1164 1.4668 28.1164 1.4668C28.1164 1.4668 12.2842 26.2285 12.2842 38.1096C12.2842 42.3085 13.9522 46.3355 16.9213 49.3047C19.8905 52.2738 23.9175 53.9418 28.1164 53.9418C32.3154 53.9418 36.3424 52.2738 39.3115 49.3047C42.2806 46.3355 43.9487 42.3085 43.9487 38.1096ZM74.6967 15.2137C74.6967 11.0568 69.1599 2.39536 69.1599 2.39536C69.1599 2.39536 63.6214 11.0568 63.6214 15.2119C63.6084 15.9474 63.742 16.6781 64.0145 17.3613C64.2869 18.0445 64.6928 18.6667 65.2083 19.1914C65.7238 19.7161 66.3386 20.1328 67.0169 20.4173C67.6953 20.7018 68.4235 20.8483 69.159 20.8483C69.8946 20.8483 70.6228 20.7018 71.3011 20.4173C71.9794 20.1328 72.5943 19.7161 73.1098 19.1914C73.6253 18.6667 74.0311 18.0445 74.3036 17.3613C74.5761 16.6781 74.7097 15.9491 74.6967 15.2137ZM67.8699 42.3235C67.8699 36.453 60.0455 24.2157 60.0455 24.2157C60.0455 24.2157 52.221 36.453 52.221 42.3235C52.221 44.3987 53.0454 46.3889 54.5127 47.8563C55.9801 49.3237 57.9703 50.148 60.0455 50.148C62.1206 50.148 64.1108 49.3237 65.5782 47.8563C67.0456 46.3889 67.8699 44.3987 67.8699 42.3235ZM52.757 63.6252C52.757 59.6654 47.4779 51.4086 47.4779 51.4086C47.4779 51.4086 42.2005 59.6654 42.2005 63.6252C42.1878 64.3263 42.3149 65.023 42.5745 65.6745C42.8341 66.3261 43.2208 66.9193 43.7122 67.4197C44.2036 67.9201 44.7898 68.3175 45.4365 68.5888C46.0832 68.8601 46.7775 68.9998 47.4788 68.9998C48.1801 68.9998 48.8743 68.8601 49.521 68.5888C50.1677 68.3175 50.7539 67.9201 51.2453 67.4197C51.7367 66.9193 52.1235 66.3261 52.383 65.6745C52.6426 65.023 52.7697 64.3263 52.757 63.6252Z" stroke="#CE00FF" stroke-linecap="round" stroke-linejoin="round"/>
<path d="M60.0455 24.2157C60.0455 24.2157 67.8699 36.453 67.8699 42.3235C67.8699 44.3987 67.0456 46.3889 65.5782 47.8563C64.1108 49.3237 62.1206 50.148 60.0455 50.148C57.9703 50.148 55.9801 49.3237 54.5127 47.8563C53.0454 46.3889 52.221 44.3987 52.221 42.3235C52.221 36.453 60.0455 24.2157 60.0455 24.2157Z" stroke="#CE00FF" stroke-linecap="round" stroke-linejoin="round"/>
</svg>
