<svg width="109" height="109" viewBox="0 0 109 109" fill="none" xmlns="http://www.w3.org/2000/svg">
<path d="M95.3747 22.2083H13.6247C12.5528 22.2083 11.5247 21.7825 10.7668 21.0246C10.0088 20.2666 9.58301 19.2386 9.58301 18.1667C9.58301 17.0947 10.0088 16.0667 10.7668 15.3088C11.5247 14.5508 12.5528 14.125 13.6247 14.125H95.3747C96.4466 14.125 97.4746 14.5508 98.2326 15.3088C98.9905 16.0667 99.4163 17.0947 99.4163 18.1667C99.4163 19.2386 98.9905 20.2666 98.2326 21.0246C97.4746 21.7825 96.4466 22.2083 95.3747 22.2083ZM89.1492 33.4754C89.9072 34.2334 90.333 35.2614 90.333 36.3333C90.333 37.4052 89.9072 38.4333 89.1492 39.1912C88.3913 39.9492 87.3633 40.375 86.2913 40.375H22.708C21.6361 40.375 20.6081 39.9492 19.8501 39.1912C19.0922 38.4333 18.6663 37.4052 18.6663 36.3333C18.6663 35.2614 19.0922 34.2334 19.8501 33.4754C20.6081 32.7175 21.6361 32.2917 22.708 32.2917H86.2913C87.3633 32.2917 88.3913 32.7175 89.1492 33.4754ZM93.6909 51.6421C94.4489 52.4001 94.8747 53.4281 94.8747 54.5C94.8747 55.5719 94.4489 56.5999 93.6909 57.3579C92.9329 58.1158 91.9049 58.5417 90.833 58.5417H45.4163C44.3444 58.5417 43.3164 58.1158 42.5585 57.3579C41.8005 56.5999 41.3747 55.5719 41.3747 54.5C41.3747 53.4281 41.8005 52.4001 42.5585 51.6421C43.3164 50.8842 44.3444 50.4583 45.4163 50.4583H90.833C91.9049 50.4583 92.9329 50.8842 93.6909 51.6421ZM70.9826 69.8088C71.7405 70.5667 72.1663 71.5947 72.1663 72.6667C72.1663 73.7386 71.7405 74.7666 70.9826 75.5246C70.2246 76.2825 69.1966 76.7083 68.1247 76.7083H40.8747C39.8028 76.7083 38.7747 76.2825 38.0168 75.5246C37.2588 74.7666 36.833 73.7386 36.833 72.6667C36.833 71.5947 37.2588 70.5667 38.0168 69.8088C38.7747 69.0508 39.8028 68.625 40.8747 68.625H68.1247C69.1966 68.625 70.2246 69.0508 70.9826 69.8088ZM57.3576 87.9754C58.1155 88.7334 58.5413 89.7614 58.5413 90.8333C58.5413 91.9052 58.1155 92.9333 57.3576 93.6912C56.5996 94.4492 55.5716 94.875 54.4997 94.875H45.4163C44.3444 94.875 43.3164 94.4492 42.5585 93.6912C41.8005 92.9333 41.3747 91.9052 41.3747 90.8333C41.3747 89.7614 41.8005 88.7334 42.5585 87.9754C43.3164 87.2175 44.3444 86.7917 45.4163 86.7917H54.4997C55.5716 86.7917 56.5996 87.2175 57.3576 87.9754Z" stroke="#DBFF00"/>
</svg>
