<svg width="259" height="259" viewBox="0 0 259 259" fill="none" xmlns="http://www.w3.org/2000/svg">
<path d="M117.046 168.112H70.4962C21.8366 163.774 22.0956 92.603 70.7876 88.5993C79.7177 54.4976 106.627 39.5943 132.494 40.9864C142.801 41.4567 152.802 44.6299 161.495 50.1875C170.187 55.7451 177.265 63.4915 182.017 72.6492C242.742 83.0901 235.436 160.92 182.017 168.112H132.451" stroke="#CE00FF" stroke-linecap="round" stroke-linejoin="round"/>
<path d="M102.78 47.0194C100.29 42.0037 96.6672 37.6366 92.1973 34.2638C87.7275 30.891 82.5338 28.6052 77.0275 27.5873C71.5212 26.5694 65.8535 26.8475 60.4733 28.3994C55.0931 29.9513 50.1481 32.7346 46.0298 36.5287C41.9115 40.3228 38.7332 45.0236 36.7463 50.2589C34.7595 55.4941 34.0188 61.12 34.5829 66.6911C35.147 72.2622 37.0003 77.6255 39.9962 82.3562C42.9921 87.087 47.0482 91.0553 51.8434 93.9469M135.705 136.865L110.189 183.723L127.078 192.281L119.793 227.672L147.959 185.962L131.513 177.167L135.705 136.865Z" stroke="#CE00FF" stroke-linecap="round" stroke-linejoin="round"/>
<path d="M94.1953 185.611C96.4303 185.611 98.2422 183.799 98.2422 181.564C98.2422 179.329 96.4303 177.518 94.1953 177.518C91.9603 177.518 90.1484 179.329 90.1484 181.564C90.1484 183.799 91.9603 185.611 94.1953 185.611Z" fill="#CE00FF"/>
<path d="M153.409 217.856C155.644 217.856 157.456 216.045 157.456 213.81C157.456 211.575 155.644 209.763 153.409 209.763C151.174 209.763 149.362 211.575 149.362 213.81C149.362 216.045 151.174 217.856 153.409 217.856Z" fill="#CE00FF"/>
<path d="M164.546 191.471C166.781 191.471 168.593 189.659 168.593 187.424C168.593 185.189 166.781 183.377 164.546 183.377C162.311 183.377 160.499 185.189 160.499 187.424C160.499 189.659 162.311 191.471 164.546 191.471Z" fill="#CE00FF"/>
<path d="M64.54 192.049C66.7751 192.049 68.5869 190.237 68.5869 188.002C68.5869 185.767 66.7751 183.955 64.54 183.955C62.305 183.955 60.4932 185.767 60.4932 188.002C60.4932 190.237 62.305 192.049 64.54 192.049Z" fill="#CE00FF"/>
<path d="M96.5742 207.534C98.8092 207.534 100.621 205.722 100.621 203.487C100.621 201.252 98.8092 199.44 96.5742 199.44C94.3392 199.44 92.5273 201.252 92.5273 203.487C92.5273 205.722 94.3392 207.534 96.5742 207.534Z" fill="#CE00FF"/>
<path d="M203.169 187.699C205.404 187.699 207.216 185.887 207.216 183.652C207.216 181.417 205.404 179.605 203.169 179.605C200.934 179.605 199.122 181.417 199.122 183.652C199.122 185.887 200.934 187.699 203.169 187.699Z" fill="#CE00FF"/>
<path d="M186.118 227.672C188.353 227.672 190.165 225.86 190.165 223.625C190.165 221.39 188.353 219.578 186.118 219.578C183.883 219.578 182.071 221.39 182.071 223.625C182.071 225.86 183.883 227.672 186.118 227.672Z" fill="#CE00FF"/>
<path d="M183.798 203.245C186.033 203.245 187.845 201.433 187.845 199.198C187.845 196.963 186.033 195.151 183.798 195.151C181.563 195.151 179.751 196.963 179.751 199.198C179.751 201.433 181.563 203.245 183.798 203.245Z" fill="#CE00FF"/>
<path d="M76.2217 231.719C78.4567 231.719 80.2686 229.907 80.2686 227.672C80.2686 225.437 78.4567 223.625 76.2217 223.625C73.9867 223.625 72.1748 225.437 72.1748 227.672C72.1748 229.907 73.9867 231.719 76.2217 231.719Z" fill="#CE00FF"/>
</svg>
