<svg width="146" height="146" viewBox="0 0 146 146" fill="none" xmlns="http://www.w3.org/2000/svg">
<path d="M68.459 45.7221C70.9014 41.4939 74.2204 37.8373 78.193 34.9981C82.1657 32.159 86.7 30.2029 91.4913 29.2613C96.2826 28.3198 101.22 28.4145 105.971 29.5393C110.723 30.664 115.179 32.7926 119.04 35.7822C122.901 38.7717 126.077 42.5529 128.355 46.8717C130.633 51.1906 131.961 55.947 132.249 60.8214C132.537 65.6958 131.778 70.5754 130.023 75.1323C128.269 79.6892 125.56 83.8178 122.077 87.2408" stroke="#CE00FF" stroke-linecap="round" stroke-linejoin="round"/>
<path d="M44.0555 56.9827C48.1551 52.883 53.2025 49.8576 58.7506 48.1745C64.2987 46.4914 70.1763 46.2026 75.8627 47.3335C81.5491 48.4645 86.8689 50.9803 91.3507 54.6582C95.8326 58.3362 99.3382 63.0626 101.557 68.419C103.776 73.7754 104.64 79.5963 104.072 85.3662C103.504 91.1361 101.522 96.6768 98.3009 101.498C95.0801 106.319 90.7201 110.271 85.6071 113.004C80.4941 115.737 74.7859 117.168 68.9881 117.168M43.7574 117.387C35.7751 117.387 28.1198 114.216 22.4754 108.572C16.8311 102.928 13.6602 95.2722 13.6602 87.2899C13.6602 79.3076 16.8311 71.6522 22.4754 66.0079C28.1198 60.3635 35.7751 57.1926 43.7574 57.1926" stroke="#CE00FF" stroke-linecap="round" stroke-linejoin="round"/>
<path d="M105.364 79.5303C107.815 79.5299 110.242 80.0123 112.507 80.9501C114.772 81.8878 116.83 83.2625 118.563 84.9957C120.296 86.7288 121.671 88.7864 122.609 91.051C123.548 93.3155 124.03 95.7427 124.03 98.1939C124.031 100.645 123.548 103.072 122.611 105.337C121.673 107.602 120.298 109.66 118.565 111.393C116.832 113.127 114.774 114.502 112.51 115.44C110.245 116.378 107.818 116.861 105.367 116.861L43.7578 117.387" stroke="#CE00FF" stroke-linecap="round" stroke-linejoin="round"/>
</svg>
