<svg width="123" height="123" viewBox="0 0 123 123" fill="none" xmlns="http://www.w3.org/2000/svg">
<path d="M80.0066 40.7106C76.653 35.0514 71.4125 30.7548 65.2057 28.5757C58.9988 26.3966 52.2226 26.4743 46.0673 28.7951C39.9121 31.116 34.7714 35.5315 31.5485 41.2662C28.3255 47.0008 27.2263 53.6877 28.444 60.1523C23.7814 60.414 19.4047 62.4843 16.2449 65.923C13.0851 69.3616 11.3913 73.8973 11.5238 78.5654C11.6563 83.2335 13.6047 87.6657 16.9545 90.9196C20.3043 94.1734 24.7913 95.9921 29.4613 95.9889H83.7018C88.2659 95.9889 92.7597 94.8637 96.7853 92.7129C100.811 90.5621 104.244 87.4521 106.781 83.6581C109.319 79.864 110.881 75.5031 111.331 70.9611C111.781 66.4192 111.104 61.8364 109.361 57.6184C107.617 53.4003 104.861 49.6771 101.336 46.7783C97.8101 43.8795 93.6245 41.8946 89.149 40.9991C84.6735 40.1036 80.0463 40.3253 75.677 41.6445C71.3076 42.9636 67.3308 45.3396 64.0986 48.5621" stroke="#CE00FF" stroke-miterlimit="10"/>
</svg>
